# xmcd
#
# Track frame offsets: 
#        150
#        16409
#        38428
#        57034
#        80641
#        95737
#        112030
#        130584
#        145883
#        164262
#        179977
#        204695
#        229197
#
# Disc length: 3352 seconds
#
# Revision: 2
# Processed by: cddbd v1.5.2PL0 Copyright (c) Steve Scherf et al.
# Submitted via: ExactAudioCopy v0.95a4
#
DISCID=b40d160d
DTITLE=Mike Zito - Pearl River
DYEAR=2009
DGENRE=Blues
TTITLE0=Dirty Blonde
TTITLE1=Pearl River
TTITLE2=Big Mouth
TTITLE3=Change My Ways
TTITLE4=Eyesight To The Blind
TTITLE5=One Step At A Time
TTITLE6=39 Days
TTITLE7=Shoes Blues
TTITLE8=The Dead Of Night
TTITLE9=Sugar Sweet
TTITLE10=Natural Born Lover
TTITLE11=All Last Night
TTITLE12=C'mon Baby
EXTD=YEAR: 2009
EXTT0=
EXTT1=
EXTT2=
EXTT3=
EXTT4=
EXTT5=
EXTT6=
EXTT7=
EXTT8=
EXTT9=
EXTT10=
EXTT11=
EXTT12=
PLAYORDER=
